<mxfile host="Electron" modified="2023-12-17T23:47:12.440Z" agent="Mozilla/5.0 (Windows NT 10.0; Win64; x64) AppleWebKit/537.36 (KHTML, like Gecko) draw.io/22.0.3 Chrome/114.0.5735.289 Electron/25.8.4 Safari/537.36" etag="P9ti4RURHJFMtr1WwWsE" version="22.0.3" type="device">
  <diagram name="PÃ¡gina-1" id="trBFHRJIrR8WA7xezbQU">
    <mxGraphModel dx="2261" dy="844" grid="1" gridSize="10" guides="1" tooltips="1" connect="1" arrows="1" fold="1" page="1" pageScale="1" pageWidth="827" pageHeight="1169" math="0" shadow="0">
      <root>
        <mxCell id="0" />
        <mxCell id="1" parent="0" />
        <mxCell id="dlqInqmlLFh0oqMl2BSs-39" style="edgeStyle=none;shape=connector;rounded=0;orthogonalLoop=1;jettySize=auto;html=1;labelBackgroundColor=default;strokeColor=#DDA15E;align=center;verticalAlign=middle;fontFamily=Helvetica;fontSize=11;fontColor=#FEFAE0;endArrow=none;endFill=0;fillColor=#BC6C25;" edge="1" parent="1" source="dlqInqmlLFh0oqMl2BSs-1" target="dlqInqmlLFh0oqMl2BSs-38">
          <mxGeometry relative="1" as="geometry" />
        </mxCell>
        <mxCell id="dlqInqmlLFh0oqMl2BSs-40" style="edgeStyle=none;shape=connector;rounded=0;orthogonalLoop=1;jettySize=auto;html=1;labelBackgroundColor=default;strokeColor=#DDA15E;align=center;verticalAlign=middle;fontFamily=Helvetica;fontSize=11;fontColor=#FEFAE0;endArrow=none;endFill=0;fillColor=#BC6C25;" edge="1" parent="1" source="dlqInqmlLFh0oqMl2BSs-1" target="dlqInqmlLFh0oqMl2BSs-28">
          <mxGeometry relative="1" as="geometry" />
        </mxCell>
        <mxCell id="dlqInqmlLFh0oqMl2BSs-41" style="edgeStyle=none;shape=connector;rounded=0;orthogonalLoop=1;jettySize=auto;html=1;labelBackgroundColor=default;strokeColor=#DDA15E;align=center;verticalAlign=middle;fontFamily=Helvetica;fontSize=11;fontColor=#FEFAE0;endArrow=none;endFill=0;fillColor=#BC6C25;" edge="1" parent="1" source="dlqInqmlLFh0oqMl2BSs-1" target="dlqInqmlLFh0oqMl2BSs-6">
          <mxGeometry relative="1" as="geometry" />
        </mxCell>
        <mxCell id="dlqInqmlLFh0oqMl2BSs-1" value="Blog" style="whiteSpace=wrap;html=1;align=center;labelBackgroundColor=none;fillColor=#BC6C25;strokeColor=#DDA15E;fontColor=#FEFAE0;" vertex="1" parent="1">
          <mxGeometry x="120" y="120" width="100" height="40" as="geometry" />
        </mxCell>
        <mxCell id="dlqInqmlLFh0oqMl2BSs-42" style="edgeStyle=none;shape=connector;rounded=0;orthogonalLoop=1;jettySize=auto;html=1;labelBackgroundColor=default;strokeColor=#DDA15E;align=center;verticalAlign=middle;fontFamily=Helvetica;fontSize=11;fontColor=#FEFAE0;endArrow=none;endFill=0;fillColor=#BC6C25;" edge="1" parent="1" source="dlqInqmlLFh0oqMl2BSs-2" target="dlqInqmlLFh0oqMl2BSs-25">
          <mxGeometry relative="1" as="geometry" />
        </mxCell>
        <mxCell id="dlqInqmlLFh0oqMl2BSs-43" style="edgeStyle=none;shape=connector;rounded=0;orthogonalLoop=1;jettySize=auto;html=1;labelBackgroundColor=default;strokeColor=#DDA15E;align=center;verticalAlign=middle;fontFamily=Helvetica;fontSize=11;fontColor=#FEFAE0;endArrow=none;endFill=0;fillColor=#BC6C25;" edge="1" parent="1" source="dlqInqmlLFh0oqMl2BSs-2" target="dlqInqmlLFh0oqMl2BSs-7">
          <mxGeometry relative="1" as="geometry" />
        </mxCell>
        <mxCell id="dlqInqmlLFh0oqMl2BSs-44" style="edgeStyle=none;shape=connector;rounded=0;orthogonalLoop=1;jettySize=auto;html=1;labelBackgroundColor=default;strokeColor=#DDA15E;align=center;verticalAlign=middle;fontFamily=Helvetica;fontSize=11;fontColor=#FEFAE0;endArrow=none;endFill=0;fillColor=#BC6C25;" edge="1" parent="1" source="dlqInqmlLFh0oqMl2BSs-2" target="dlqInqmlLFh0oqMl2BSs-26">
          <mxGeometry relative="1" as="geometry" />
        </mxCell>
        <mxCell id="dlqInqmlLFh0oqMl2BSs-2" value="Categoria" style="whiteSpace=wrap;html=1;align=center;labelBackgroundColor=none;fillColor=#BC6C25;strokeColor=#DDA15E;fontColor=#FEFAE0;" vertex="1" parent="1">
          <mxGeometry x="120" y="440" width="100" height="40" as="geometry" />
        </mxCell>
        <mxCell id="dlqInqmlLFh0oqMl2BSs-45" style="edgeStyle=none;shape=connector;rounded=0;orthogonalLoop=1;jettySize=auto;html=1;labelBackgroundColor=default;strokeColor=#DDA15E;align=center;verticalAlign=middle;fontFamily=Helvetica;fontSize=11;fontColor=#FEFAE0;endArrow=none;endFill=0;fillColor=#BC6C25;" edge="1" parent="1" source="dlqInqmlLFh0oqMl2BSs-3" target="dlqInqmlLFh0oqMl2BSs-35">
          <mxGeometry relative="1" as="geometry" />
        </mxCell>
        <mxCell id="dlqInqmlLFh0oqMl2BSs-48" style="edgeStyle=none;shape=connector;rounded=0;orthogonalLoop=1;jettySize=auto;html=1;labelBackgroundColor=default;strokeColor=#DDA15E;align=center;verticalAlign=middle;fontFamily=Helvetica;fontSize=11;fontColor=#FEFAE0;endArrow=none;endFill=0;fillColor=#BC6C25;" edge="1" parent="1" source="dlqInqmlLFh0oqMl2BSs-3" target="dlqInqmlLFh0oqMl2BSs-33">
          <mxGeometry relative="1" as="geometry" />
        </mxCell>
        <mxCell id="dlqInqmlLFh0oqMl2BSs-49" style="edgeStyle=none;shape=connector;rounded=0;orthogonalLoop=1;jettySize=auto;html=1;labelBackgroundColor=default;strokeColor=#DDA15E;align=center;verticalAlign=middle;fontFamily=Helvetica;fontSize=11;fontColor=#FEFAE0;endArrow=none;endFill=0;fillColor=#BC6C25;" edge="1" parent="1" source="dlqInqmlLFh0oqMl2BSs-3" target="dlqInqmlLFh0oqMl2BSs-32">
          <mxGeometry relative="1" as="geometry" />
        </mxCell>
        <mxCell id="dlqInqmlLFh0oqMl2BSs-50" style="edgeStyle=none;shape=connector;rounded=0;orthogonalLoop=1;jettySize=auto;html=1;labelBackgroundColor=default;strokeColor=#DDA15E;align=center;verticalAlign=middle;fontFamily=Helvetica;fontSize=11;fontColor=#FEFAE0;endArrow=none;endFill=0;fillColor=#BC6C25;" edge="1" parent="1" source="dlqInqmlLFh0oqMl2BSs-3" target="dlqInqmlLFh0oqMl2BSs-31">
          <mxGeometry relative="1" as="geometry" />
        </mxCell>
        <mxCell id="dlqInqmlLFh0oqMl2BSs-51" style="edgeStyle=none;shape=connector;rounded=0;orthogonalLoop=1;jettySize=auto;html=1;labelBackgroundColor=default;strokeColor=#DDA15E;align=center;verticalAlign=middle;fontFamily=Helvetica;fontSize=11;fontColor=#FEFAE0;endArrow=none;endFill=0;fillColor=#BC6C25;" edge="1" parent="1" source="dlqInqmlLFh0oqMl2BSs-3" target="dlqInqmlLFh0oqMl2BSs-30">
          <mxGeometry relative="1" as="geometry" />
        </mxCell>
        <mxCell id="dlqInqmlLFh0oqMl2BSs-52" style="edgeStyle=none;shape=connector;rounded=0;orthogonalLoop=1;jettySize=auto;html=1;labelBackgroundColor=default;strokeColor=#DDA15E;align=center;verticalAlign=middle;fontFamily=Helvetica;fontSize=11;fontColor=#FEFAE0;endArrow=none;endFill=0;fillColor=#BC6C25;" edge="1" parent="1" source="dlqInqmlLFh0oqMl2BSs-3" target="dlqInqmlLFh0oqMl2BSs-29">
          <mxGeometry relative="1" as="geometry" />
        </mxCell>
        <mxCell id="dlqInqmlLFh0oqMl2BSs-53" style="edgeStyle=none;shape=connector;rounded=0;orthogonalLoop=1;jettySize=auto;html=1;labelBackgroundColor=default;strokeColor=#DDA15E;align=center;verticalAlign=middle;fontFamily=Helvetica;fontSize=11;fontColor=#FEFAE0;endArrow=none;endFill=0;fillColor=#BC6C25;" edge="1" parent="1" source="dlqInqmlLFh0oqMl2BSs-3" target="dlqInqmlLFh0oqMl2BSs-8">
          <mxGeometry relative="1" as="geometry" />
        </mxCell>
        <mxCell id="dlqInqmlLFh0oqMl2BSs-3" value="Usuarios" style="whiteSpace=wrap;html=1;align=center;labelBackgroundColor=none;fillColor=#BC6C25;strokeColor=#DDA15E;fontColor=#FEFAE0;" vertex="1" parent="1">
          <mxGeometry x="560" y="200" width="100" height="40" as="geometry" />
        </mxCell>
        <mxCell id="dlqInqmlLFh0oqMl2BSs-20" style="edgeStyle=none;shape=connector;rounded=0;orthogonalLoop=1;jettySize=auto;html=1;labelBackgroundColor=default;strokeColor=#DDA15E;align=center;verticalAlign=middle;fontFamily=Helvetica;fontSize=11;fontColor=#FEFAE0;endArrow=none;endFill=0;fillColor=#BC6C25;" edge="1" parent="1" source="dlqInqmlLFh0oqMl2BSs-4" target="dlqInqmlLFh0oqMl2BSs-14">
          <mxGeometry relative="1" as="geometry" />
        </mxCell>
        <mxCell id="dlqInqmlLFh0oqMl2BSs-21" style="edgeStyle=none;shape=connector;rounded=0;orthogonalLoop=1;jettySize=auto;html=1;labelBackgroundColor=default;strokeColor=#DDA15E;align=center;verticalAlign=middle;fontFamily=Helvetica;fontSize=11;fontColor=#FEFAE0;endArrow=none;endFill=0;fillColor=#BC6C25;" edge="1" parent="1" source="dlqInqmlLFh0oqMl2BSs-4" target="dlqInqmlLFh0oqMl2BSs-15">
          <mxGeometry relative="1" as="geometry" />
        </mxCell>
        <mxCell id="dlqInqmlLFh0oqMl2BSs-22" style="edgeStyle=none;shape=connector;rounded=0;orthogonalLoop=1;jettySize=auto;html=1;labelBackgroundColor=default;strokeColor=#DDA15E;align=center;verticalAlign=middle;fontFamily=Helvetica;fontSize=11;fontColor=#FEFAE0;endArrow=none;endFill=0;fillColor=#BC6C25;" edge="1" parent="1" source="dlqInqmlLFh0oqMl2BSs-4" target="dlqInqmlLFh0oqMl2BSs-12">
          <mxGeometry relative="1" as="geometry" />
        </mxCell>
        <mxCell id="dlqInqmlLFh0oqMl2BSs-23" style="edgeStyle=none;shape=connector;rounded=0;orthogonalLoop=1;jettySize=auto;html=1;labelBackgroundColor=default;strokeColor=#DDA15E;align=center;verticalAlign=middle;fontFamily=Helvetica;fontSize=11;fontColor=#FEFAE0;endArrow=none;endFill=0;fillColor=#BC6C25;" edge="1" parent="1" source="dlqInqmlLFh0oqMl2BSs-4" target="dlqInqmlLFh0oqMl2BSs-16">
          <mxGeometry relative="1" as="geometry" />
        </mxCell>
        <mxCell id="dlqInqmlLFh0oqMl2BSs-4" value="Articulo" style="shape=ext;margin=3;double=1;whiteSpace=wrap;html=1;align=center;labelBackgroundColor=none;fillColor=#BC6C25;strokeColor=#DDA15E;fontColor=#FEFAE0;" vertex="1" parent="1">
          <mxGeometry x="440" y="520" width="100" height="40" as="geometry" />
        </mxCell>
        <mxCell id="dlqInqmlLFh0oqMl2BSs-17" style="rounded=0;orthogonalLoop=1;jettySize=auto;html=1;strokeColor=#DDA15E;fontColor=#FEFAE0;fillColor=#BC6C25;endArrow=none;endFill=0;" edge="1" parent="1" source="dlqInqmlLFh0oqMl2BSs-5" target="dlqInqmlLFh0oqMl2BSs-10">
          <mxGeometry relative="1" as="geometry" />
        </mxCell>
        <mxCell id="dlqInqmlLFh0oqMl2BSs-18" style="edgeStyle=none;shape=connector;rounded=0;orthogonalLoop=1;jettySize=auto;html=1;labelBackgroundColor=default;strokeColor=#DDA15E;align=center;verticalAlign=middle;fontFamily=Helvetica;fontSize=11;fontColor=#FEFAE0;endArrow=none;endFill=0;fillColor=#BC6C25;" edge="1" parent="1" source="dlqInqmlLFh0oqMl2BSs-5" target="dlqInqmlLFh0oqMl2BSs-13">
          <mxGeometry relative="1" as="geometry" />
        </mxCell>
        <mxCell id="dlqInqmlLFh0oqMl2BSs-19" style="edgeStyle=none;shape=connector;rounded=0;orthogonalLoop=1;jettySize=auto;html=1;labelBackgroundColor=default;strokeColor=#DDA15E;align=center;verticalAlign=middle;fontFamily=Helvetica;fontSize=11;fontColor=#FEFAE0;endArrow=none;endFill=0;fillColor=#BC6C25;" edge="1" parent="1" source="dlqInqmlLFh0oqMl2BSs-5" target="dlqInqmlLFh0oqMl2BSs-11">
          <mxGeometry relative="1" as="geometry" />
        </mxCell>
        <mxCell id="dlqInqmlLFh0oqMl2BSs-5" value="Comentarios" style="shape=ext;margin=3;double=1;whiteSpace=wrap;html=1;align=center;labelBackgroundColor=none;fillColor=#BC6C25;strokeColor=#DDA15E;fontColor=#FEFAE0;" vertex="1" parent="1">
          <mxGeometry x="680" y="680" width="100" height="40" as="geometry" />
        </mxCell>
        <mxCell id="dlqInqmlLFh0oqMl2BSs-6" value="Nombre" style="ellipse;whiteSpace=wrap;html=1;align=center;fontStyle=4;labelBackgroundColor=none;fillColor=#BC6C25;strokeColor=#DDA15E;fontColor=#FEFAE0;" vertex="1" parent="1">
          <mxGeometry x="-10" y="180" width="100" height="40" as="geometry" />
        </mxCell>
        <mxCell id="dlqInqmlLFh0oqMl2BSs-7" value="ID_Categoria" style="ellipse;whiteSpace=wrap;html=1;align=center;fontStyle=4;labelBackgroundColor=none;fillColor=#BC6C25;strokeColor=#DDA15E;fontColor=#FEFAE0;" vertex="1" parent="1">
          <mxGeometry x="-70" y="500" width="100" height="40" as="geometry" />
        </mxCell>
        <mxCell id="dlqInqmlLFh0oqMl2BSs-8" value="ID_Usuario" style="ellipse;whiteSpace=wrap;html=1;align=center;fontStyle=4;labelBackgroundColor=none;fillColor=#BC6C25;strokeColor=#DDA15E;fontColor=#FEFAE0;" vertex="1" parent="1">
          <mxGeometry x="560" y="120" width="100" height="40" as="geometry" />
        </mxCell>
        <mxCell id="dlqInqmlLFh0oqMl2BSs-24" style="edgeStyle=none;shape=connector;rounded=0;orthogonalLoop=1;jettySize=auto;html=1;labelBackgroundColor=default;strokeColor=#DDA15E;align=center;verticalAlign=middle;fontFamily=Helvetica;fontSize=11;fontColor=#FEFAE0;endArrow=none;endFill=0;fillColor=#BC6C25;" edge="1" parent="1" source="dlqInqmlLFh0oqMl2BSs-9" target="dlqInqmlLFh0oqMl2BSs-4">
          <mxGeometry relative="1" as="geometry" />
        </mxCell>
        <mxCell id="dlqInqmlLFh0oqMl2BSs-9" value="ID_Articulo" style="ellipse;whiteSpace=wrap;html=1;align=center;fontStyle=4;labelBackgroundColor=none;fillColor=#BC6C25;strokeColor=#DDA15E;fontColor=#FEFAE0;" vertex="1" parent="1">
          <mxGeometry x="440" y="440" width="100" height="40" as="geometry" />
        </mxCell>
        <mxCell id="dlqInqmlLFh0oqMl2BSs-10" value="ID_Comentario" style="ellipse;whiteSpace=wrap;html=1;align=center;fontStyle=4;labelBackgroundColor=none;fillColor=#BC6C25;strokeColor=#DDA15E;fontColor=#FEFAE0;" vertex="1" parent="1">
          <mxGeometry x="740" y="600" width="100" height="40" as="geometry" />
        </mxCell>
        <mxCell id="dlqInqmlLFh0oqMl2BSs-11" value="Titulo" style="ellipse;whiteSpace=wrap;html=1;align=center;labelBackgroundColor=none;fillColor=#BC6C25;strokeColor=#DDA15E;fontColor=#FEFAE0;" vertex="1" parent="1">
          <mxGeometry x="600" y="760" width="100" height="40" as="geometry" />
        </mxCell>
        <mxCell id="dlqInqmlLFh0oqMl2BSs-12" value="Titulo" style="ellipse;whiteSpace=wrap;html=1;align=center;labelBackgroundColor=none;fillColor=#BC6C25;strokeColor=#DDA15E;fontColor=#FEFAE0;" vertex="1" parent="1">
          <mxGeometry x="340" y="610" width="100" height="40" as="geometry" />
        </mxCell>
        <mxCell id="dlqInqmlLFh0oqMl2BSs-13" value="Descripcion" style="ellipse;whiteSpace=wrap;html=1;align=center;labelBackgroundColor=none;fillColor=#BC6C25;strokeColor=#DDA15E;fontColor=#FEFAE0;" vertex="1" parent="1">
          <mxGeometry x="727" y="760" width="100" height="40" as="geometry" />
        </mxCell>
        <mxCell id="dlqInqmlLFh0oqMl2BSs-14" value="Descripcion" style="ellipse;whiteSpace=wrap;html=1;align=center;labelBackgroundColor=none;fillColor=#BC6C25;strokeColor=#DDA15E;fontColor=#FEFAE0;" vertex="1" parent="1">
          <mxGeometry x="470" y="630" width="100" height="40" as="geometry" />
        </mxCell>
        <mxCell id="dlqInqmlLFh0oqMl2BSs-15" value="Fecha_Publicacion" style="ellipse;whiteSpace=wrap;html=1;align=center;labelBackgroundColor=none;fillColor=#BC6C25;strokeColor=#DDA15E;fontColor=#FEFAE0;" vertex="1" parent="1">
          <mxGeometry x="560" y="585" width="110" height="40" as="geometry" />
        </mxCell>
        <mxCell id="dlqInqmlLFh0oqMl2BSs-16" value="Contenido" style="ellipse;whiteSpace=wrap;html=1;align=center;labelBackgroundColor=none;fillColor=#BC6C25;strokeColor=#DDA15E;fontColor=#FEFAE0;" vertex="1" parent="1">
          <mxGeometry x="320" y="540" width="100" height="40" as="geometry" />
        </mxCell>
        <mxCell id="dlqInqmlLFh0oqMl2BSs-25" value="Titulo" style="ellipse;whiteSpace=wrap;html=1;align=center;labelBackgroundColor=none;fillColor=#BC6C25;strokeColor=#DDA15E;fontColor=#FEFAE0;" vertex="1" parent="1">
          <mxGeometry x="-40" y="390" width="100" height="40" as="geometry" />
        </mxCell>
        <mxCell id="dlqInqmlLFh0oqMl2BSs-26" value="Contenido" style="ellipse;whiteSpace=wrap;html=1;align=center;labelBackgroundColor=none;fillColor=#BC6C25;strokeColor=#DDA15E;fontColor=#FEFAE0;" vertex="1" parent="1">
          <mxGeometry x="90" y="550" width="100" height="40" as="geometry" />
        </mxCell>
        <mxCell id="dlqInqmlLFh0oqMl2BSs-28" value="Fecha_Creacion" style="ellipse;whiteSpace=wrap;html=1;align=center;labelBackgroundColor=none;fillColor=#BC6C25;strokeColor=#DDA15E;fontColor=#FEFAE0;" vertex="1" parent="1">
          <mxGeometry x="220" y="60" width="100" height="40" as="geometry" />
        </mxCell>
        <mxCell id="dlqInqmlLFh0oqMl2BSs-29" value="Nombre" style="ellipse;whiteSpace=wrap;html=1;align=center;labelBackgroundColor=none;fillColor=#BC6C25;strokeColor=#DDA15E;fontColor=#FEFAE0;" vertex="1" parent="1">
          <mxGeometry x="670" y="130" width="100" height="40" as="geometry" />
        </mxCell>
        <mxCell id="dlqInqmlLFh0oqMl2BSs-30" value="Email" style="ellipse;whiteSpace=wrap;html=1;align=center;labelBackgroundColor=none;fillColor=#BC6C25;strokeColor=#DDA15E;fontColor=#FEFAE0;" vertex="1" parent="1">
          <mxGeometry x="720" y="180" width="100" height="40" as="geometry" />
        </mxCell>
        <mxCell id="dlqInqmlLFh0oqMl2BSs-31" value="Titulos" style="ellipse;shape=doubleEllipse;margin=3;whiteSpace=wrap;html=1;align=center;strokeColor=#DDA15E;fontFamily=Helvetica;fontSize=11;fontColor=#FEFAE0;fillColor=#BC6C25;" vertex="1" parent="1">
          <mxGeometry x="710" y="240" width="100" height="40" as="geometry" />
        </mxCell>
        <mxCell id="dlqInqmlLFh0oqMl2BSs-32" value="Fecha_Creacion" style="ellipse;whiteSpace=wrap;html=1;align=center;labelBackgroundColor=none;fillColor=#BC6C25;strokeColor=#DDA15E;fontColor=#FEFAE0;" vertex="1" parent="1">
          <mxGeometry x="650" y="300" width="100" height="40" as="geometry" />
        </mxCell>
        <mxCell id="dlqInqmlLFh0oqMl2BSs-33" value="Comentarios" style="ellipse;shape=doubleEllipse;margin=3;whiteSpace=wrap;html=1;align=center;strokeColor=#DDA15E;fontFamily=Helvetica;fontSize=11;fontColor=#FEFAE0;fillColor=#BC6C25;" vertex="1" parent="1">
          <mxGeometry x="540" y="300" width="100" height="40" as="geometry" />
        </mxCell>
        <mxCell id="dlqInqmlLFh0oqMl2BSs-46" style="edgeStyle=none;shape=connector;rounded=0;orthogonalLoop=1;jettySize=auto;html=1;labelBackgroundColor=default;strokeColor=#DDA15E;align=center;verticalAlign=middle;fontFamily=Helvetica;fontSize=11;fontColor=#FEFAE0;endArrow=none;endFill=0;fillColor=#BC6C25;" edge="1" parent="1" source="dlqInqmlLFh0oqMl2BSs-35" target="dlqInqmlLFh0oqMl2BSs-37">
          <mxGeometry relative="1" as="geometry" />
        </mxCell>
        <mxCell id="dlqInqmlLFh0oqMl2BSs-47" style="edgeStyle=none;shape=connector;rounded=0;orthogonalLoop=1;jettySize=auto;html=1;labelBackgroundColor=default;strokeColor=#DDA15E;align=center;verticalAlign=middle;fontFamily=Helvetica;fontSize=11;fontColor=#FEFAE0;endArrow=none;endFill=0;fillColor=#BC6C25;" edge="1" parent="1" source="dlqInqmlLFh0oqMl2BSs-35" target="dlqInqmlLFh0oqMl2BSs-36">
          <mxGeometry relative="1" as="geometry" />
        </mxCell>
        <mxCell id="dlqInqmlLFh0oqMl2BSs-35" value="Apellidos" style="ellipse;whiteSpace=wrap;html=1;align=center;labelBackgroundColor=none;fillColor=#BC6C25;strokeColor=#DDA15E;fontColor=#FEFAE0;" vertex="1" parent="1">
          <mxGeometry x="460" y="260" width="100" height="40" as="geometry" />
        </mxCell>
        <mxCell id="dlqInqmlLFh0oqMl2BSs-36" value="Apellido1" style="ellipse;whiteSpace=wrap;html=1;align=center;labelBackgroundColor=none;fillColor=#BC6C25;strokeColor=#DDA15E;fontColor=#FEFAE0;" vertex="1" parent="1">
          <mxGeometry x="350" y="280" width="100" height="40" as="geometry" />
        </mxCell>
        <mxCell id="dlqInqmlLFh0oqMl2BSs-37" value="Apellido2" style="ellipse;whiteSpace=wrap;html=1;align=center;labelBackgroundColor=none;fillColor=#BC6C25;strokeColor=#DDA15E;fontColor=#FEFAE0;" vertex="1" parent="1">
          <mxGeometry x="400" y="330" width="100" height="40" as="geometry" />
        </mxCell>
        <mxCell id="dlqInqmlLFh0oqMl2BSs-38" value="Comentarios" style="ellipse;shape=doubleEllipse;margin=3;whiteSpace=wrap;html=1;align=center;strokeColor=#DDA15E;fontFamily=Helvetica;fontSize=11;fontColor=#FEFAE0;fillColor=#BC6C25;" vertex="1" parent="1">
          <mxGeometry y="30" width="100" height="40" as="geometry" />
        </mxCell>
      </root>
    </mxGraphModel>
  </diagram>
</mxfile>
